<?xml version="1.0" encoding="UTF-8" standalone="no"?>
<!-- Created with Inkscape (http://www.inkscape.org/) -->

<svg
   width="194.83446mm"
   height="80.732246mm"
   viewBox="0 0 194.83446 80.732246"
   version="1.1"
   id="svg1"
   xml:space="preserve"
   xmlns="http://www.w3.org/2000/svg"
   xmlns:svg="http://www.w3.org/2000/svg"><defs
     id="defs1" /><g
     id="layer1"
     transform="translate(-7.5272435,-64.633395)"><g
       id="g6"
       transform="matrix(1.3649767,0,0,1.3649767,-53.86581,-38.314905)"><path
         style="fill:none;fill-opacity:0.698827;stroke:#cdd6f4;stroke-width:3.1014;stroke-linecap:round;stroke-linejoin:round;stroke-miterlimit:0;stroke-dasharray:none;stroke-opacity:1"
         d="m 105,105 c 0,15.46804 -12.346258,28.00736 -27.576135,28.00736 -15.229877,0 -27.576132,-12.53932 -27.57613,-28.00736 4e-6,-15.468027 12.346257,-28.007347 27.57613,-28.007347 C 92.653738,76.992653 104.99999,89.531973 105,105 Z"
         id="path5" /><path
         style="fill:none;fill-opacity:0.698827;stroke:#cdd6f4;stroke-width:3.1014;stroke-linecap:round;stroke-linejoin:round;stroke-miterlimit:0;stroke-dasharray:none;stroke-opacity:1"
         d="m 155.34109,133.00558 c 14.71327,0 30.82387,-9.35506 30.82387,-27.80629 0,-18.451226 -16.1106,-28.227302 -30.82387,-28.227302"
         id="path6" /><path
         style="fill:none;fill-opacity:0.698827;stroke:#cdd6f4;stroke-width:3.1014;stroke-linecap:round;stroke-linejoin:round;stroke-miterlimit:0;stroke-dasharray:none;stroke-opacity:1"
         d="m 77.4326,133.0161 c -14.751777,0 -30.904535,-9.35483 -30.904538,-27.80559 -2e-6,-18.450764 16.152757,-28.226592 30.904538,-28.226592"
         id="path1-2" /><path
         id="path1-6"
         style="fill:none;fill-opacity:0.698827;stroke:#cdd6f4;stroke-width:3.1014;stroke-linecap:round;stroke-linejoin:round;stroke-miterlimit:0;stroke-dasharray:none;stroke-opacity:1"
         d="m 182.92665,104.98879 a 27.57613,28.007357 0 0 1 -27.57613,28.00736 27.57613,28.007357 0 0 1 -27.57613,-28.00736 27.57613,28.007357 0 0 1 27.57613,-28.007354 27.57613,28.007357 0 0 1 27.57613,28.007354 z" /><path
         style="display:inline;fill:none;fill-opacity:0.698827;stroke:#cdd6f4;stroke-width:3.1014;stroke-linecap:square;stroke-linejoin:round;stroke-miterlimit:0;stroke-dasharray:none;stroke-opacity:1"
         d="m 96.857842,169.71219 c 2.311141,0.71613 0.990079,-8.0788 0.15768,-12.6501 -0.268041,-1.472 0.111689,-3.76602 1.339231,-4.59685 1.510408,-1.02228 4.147317,-2.0598 8.613287,-2.02248 4.9135,0.0411 7.7091,1.36944 9.21425,2.52282 1.00667,0.7714 1.31197,2.69068 1.03658,3.93715 -0.98388,4.45328 -2.78997,13.86887 -0.20316,12.79384"
         id="path2"
         transform="matrix(1,-0.00168565,0,1,9.5054165,-62.56739)" /></g></g></svg>
